<svg width="515" height="146" viewBox="0 0 515 146" fill="none" xmlns="http://www.w3.org/2000/svg">
<g filter="url(#filter0_d)">
<g clip-path="url(#clip0)">
<path d="M203.669 101.752L203.625 118.448L189.477 110.058L189.554 93.3368L203.669 101.752Z" fill="#9D8A33"/>
<path d="M203.669 101.752L217.725 93.4265L217.681 110.063L203.625 118.448L203.669 101.752Z" fill="#F3CE2E"/>
<path d="M189.557 93.3368L203.579 84.9762L217.728 93.4264L203.671 101.752L189.557 93.3368Z" fill="url(#paint0_linear)"/>
<path d="M203.625 84.9962L203.669 101.752L239.191 80.7063L239.142 63.9553L203.625 84.9962Z" fill="#475CAA"/>
<path d="M203.626 84.9961L189.512 76.5807L189.555 93.3368L203.67 101.752L203.626 84.9961Z" fill="#242F65"/>
<path d="M239.144 63.9552L225.029 55.5399L189.512 76.5808L203.626 84.9961L239.144 63.9552Z" fill="#38499B"/>
<path d="M225.029 55.5648L224.98 72.3158L189.463 51.2749L189.511 34.5189L225.029 55.5648Z" fill="#2D748E"/>
<path d="M225.029 55.5648L239.144 47.1444V63.9552L224.98 72.3158L225.029 55.5648Z" fill="url(#paint1_linear)"/>
<path d="M189.512 34.5189L203.622 26.1035L239.144 47.1444L225.029 55.5648L189.512 34.5189Z" fill="url(#paint2_linear)"/>
<path d="M224.981 72.3158L195.135 73.2475L210.871 63.9553L224.981 72.3158Z" fill="url(#paint3_linear)"/>
</g>
</g>
<g filter="url(#filter1_d)">
<path d="M142.624 66.096H138.016V61.464H136.216V66.096H131.608V67.872H136.216V72.48H138.016V67.872H142.624V66.096Z" fill="white"/>
</g>
<g filter="url(#filter2_d)">
<path d="M281.608 65.232H292.624V63.456H281.608V65.232ZM281.608 70.512H292.624V68.736H281.608V70.512Z" fill="white"/>
</g>
<path d="M423.966 105.341L384.295 128.908V137.157L423.966 113.59V105.341Z" fill="#276D7C"/>
<path d="M345.016 105.734L384.294 128.908V137.549L345.016 114.375V105.734Z" fill="#1C515C"/>
<path d="M384.621 82.2039L423.999 105.307L384.378 128.82L344.999 105.718L384.621 82.2039Z" fill="#22606F"/>
<path d="M423.966 89.6303L384.295 113.197V121.445L423.966 97.8787V89.6303Z" fill="#76818B"/>
<path d="M345.016 90.0231L384.294 113.197V121.838L345.016 98.6643V90.0231Z" fill="#4B5259"/>
<path d="M384.621 66.4927L423.999 89.5954L384.378 113.109L344.999 90.0066L384.621 66.4927Z" fill="#5B636B"/>
<path d="M423.966 73.9191L384.295 97.4859V105.734L423.966 82.1675V73.9191Z" fill="#76818B"/>
<path d="M345.016 74.312L384.294 97.4859V106.127L345.016 82.9531V74.312Z" fill="#4B5259"/>
<path d="M384.621 50.7816L423.999 73.8842L384.378 97.3981L344.999 74.2954L384.621 50.7816Z" fill="#5B636B"/>
<path d="M423.966 57.9191L384.295 81.4859V89.7342L423.966 66.1675V57.9191Z" fill="#76818B"/>
<path d="M345.016 58.312L384.294 81.4859V90.1271L345.016 66.9531V58.312Z" fill="#4B5259"/>
<path d="M384.621 34.7816L423.999 57.8842L384.378 81.3981L344.999 58.2954L384.621 34.7816Z" fill="#5B636B"/>
<path d="M423.966 39.7639L384.295 63.3306V71.579L423.966 48.0122V39.7639Z" fill="#B3E8D1"/>
<path d="M345.016 40.1567L384.294 63.3306V71.9718L345.016 48.7978V40.1567Z" fill="#41796C"/>
<path d="M384.621 16.6263L423.999 39.729L384.378 63.2428L344.999 40.1402L384.621 16.6263Z" fill="url(#paint4_linear)"/>
<path d="M53.8839 96.0955L102.487 68.0347L54.0128 39.9748L5.41016 68.0356L53.8839 96.0955Z" fill="url(#paint5_linear)"/>
<path d="M53.884 96.096L53.8844 108.591L5.41062 80.5311L5.4102 68.036L53.884 96.096Z" fill="#41796C"/>
<path d="M53.8836 96.0952L102.486 68.0344L102.486 80.53L53.8833 108.591L53.8836 96.0952Z" fill="#B2E8D1"/>
<path d="M26.0097 68.1717L26.0007 66.8757L35.0804 62.7627L35.0941 64.7426L29.0291 67.5027L35.1318 70.1785L35.1456 72.1584L26.0097 68.1717ZM43.2433 71.7603L43.1893 71.7607C42.9759 72.1461 42.6302 72.4665 42.1519 72.7219C41.6736 72.9652 41.1284 73.089 40.5164 73.0932C40.1685 73.0956 39.8021 73.0502 39.4175 72.9568C39.0449 72.8754 38.6959 72.7338 38.3705 72.5321C38.057 72.3183 37.7911 72.0441 37.5728 71.7096C37.3664 71.363 37.2614 70.9377 37.2579 70.4338C37.2534 69.7858 37.4298 69.2685 37.7872 68.882C38.1565 68.4955 38.6285 68.1982 39.203 67.9902C39.7776 67.7822 40.4127 67.6458 41.1082 67.581C41.8157 67.5041 42.5055 67.4633 43.1774 67.4586L43.1759 67.2426C43.1722 66.7027 42.9715 66.308 42.5737 66.0588C42.1879 65.7975 41.725 65.6687 41.185 65.6724C40.729 65.6756 40.2917 65.7746 39.873 65.9695C39.4544 66.1644 39.108 66.4008 38.8339 66.6787L37.7088 65.3725C38.1977 64.9131 38.7593 64.5672 39.3937 64.3348C40.0401 64.1023 40.6933 63.9838 41.3533 63.9792C42.1212 63.9739 42.752 64.0775 43.2455 64.2901C43.751 64.5026 44.1489 64.7818 44.4393 65.1278C44.7297 65.4738 44.9304 65.8624 45.0414 66.2937C45.1644 66.7248 45.2274 67.1564 45.2304 67.5884L45.2668 72.8443L43.2509 72.8583L43.2433 71.7603ZM43.1875 68.9166L42.7016 68.92C42.3536 68.9224 41.9877 68.9429 41.604 68.9816C41.2201 69.0082 40.8666 69.0767 40.5434 69.1869C40.22 69.2852 39.951 69.4311 39.7364 69.6245C39.5216 69.806 39.4154 70.0588 39.4176 70.3828C39.419 70.5868 39.4622 70.7605 39.5472 70.9039C39.6442 71.0352 39.7649 71.1424 39.9095 71.2254C40.0541 71.3084 40.2165 71.3673 40.3967 71.402C40.577 71.4368 40.7571 71.4535 40.9371 71.4523C41.6811 71.4471 42.2437 71.2452 42.6249 70.8465C43.0062 70.4479 43.1944 69.9066 43.1897 69.2226L43.1875 68.9166ZM49.7933 64.1727L49.8017 65.3786L49.8557 65.3783C49.9625 65.2095 50.0993 65.0406 50.2661 64.8714C50.4449 64.6902 50.6598 64.5327 50.9109 64.3989C51.1619 64.2532 51.4431 64.1372 51.7545 64.0511C52.0778 63.9528 52.4375 63.9023 52.8335 63.8996C53.4455 63.8953 54.0103 64.0114 54.5279 64.2478C55.0455 64.4723 55.4917 64.7872 55.8665 65.1926C56.2413 65.598 56.5327 66.076 56.7405 66.6266C56.9483 67.1771 57.0544 67.7704 57.0588 68.4064C57.0632 69.0424 56.9654 69.6431 56.7653 70.2085C56.5771 70.7618 56.2985 71.2497 55.9294 71.6723C55.5723 72.0828 55.1306 72.4159 54.6043 72.6715C54.09 72.9151 53.5029 73.0392 52.8429 73.0437C52.2309 73.048 51.666 72.9259 51.1483 72.6775C50.6426 72.429 50.2502 72.0897 49.9712 71.6596L49.9352 71.6599L49.9732 77.1317L47.8132 77.1467L47.7233 64.187L49.7933 64.1727ZM54.8629 68.4216C54.8605 68.0856 54.8043 67.756 54.694 67.4328C54.5957 67.0974 54.4436 66.7985 54.2378 66.5359C54.032 66.2733 53.7725 66.0651 53.4594 65.9113C53.1463 65.7455 52.7797 65.664 52.3597 65.6669C51.9637 65.6697 51.6103 65.7561 51.2995 65.9263C50.9887 66.0964 50.7202 66.3143 50.494 66.5799C50.2798 66.8454 50.1139 67.1465 49.9963 67.4833C49.8906 67.8201 49.8389 68.1565 49.8412 68.4924C49.8436 68.8284 49.8999 69.1641 50.0102 69.4993C50.1325 69.8225 50.3025 70.1153 50.5203 70.3778C50.7502 70.6402 51.0217 70.8543 51.3348 71.0202C51.6479 71.174 52.0024 71.2495 52.3984 71.2468C52.8184 71.2439 53.1838 71.1573 53.4946 70.9872C53.8055 70.817 54.062 70.5992 54.2641 70.3338C54.4663 70.0684 54.6142 69.7674 54.7079 69.4307C54.8135 69.094 54.8652 68.7576 54.8629 68.4216ZM61.1836 64.0937L61.192 65.2997L61.246 65.2993C61.3528 65.1305 61.4897 64.9616 61.6565 64.7924C61.8352 64.6112 62.0502 64.4537 62.3012 64.3199C62.5522 64.1742 62.8334 64.0582 63.1448 63.9721C63.4682 63.8738 63.8278 63.8233 64.2238 63.8206C64.8358 63.8164 65.4006 63.9324 65.9183 64.1689C66.4358 64.3933 66.882 64.7082 67.2569 65.1136C67.6317 65.519 67.923 65.997 68.1308 66.5476C68.3387 67.0981 68.4448 67.6914 68.4492 68.3274C68.4536 68.9634 68.3558 69.5641 68.1557 70.1295C67.9675 70.6828 67.6889 71.1707 67.3198 71.5933C66.9626 72.0038 66.5209 72.3369 65.9947 72.5925C65.4804 72.8361 64.8932 72.9602 64.2332 72.9648C63.6212 72.969 63.0564 72.8469 62.5387 72.5985C62.0329 72.35 61.6406 72.0107 61.3616 71.5806L61.3256 71.5809L61.3635 77.0528L59.2036 77.0677L59.1137 64.108L61.1836 64.0937ZM66.2532 68.3426C66.2509 68.0066 66.1946 67.677 66.0844 67.3538C65.986 67.0185 65.834 66.7195 65.6281 66.4569C65.4223 66.1943 65.1629 65.9861 64.8498 65.8323C64.5366 65.6665 64.1701 65.585 63.7501 65.5879C63.3541 65.5907 63.0007 65.6771 62.6898 65.8473C62.379 66.0174 62.1105 66.2353 61.8844 66.5009C61.6702 66.7664 61.5043 67.0675 61.3866 67.4044C61.2809 67.7411 61.2293 68.0775 61.2316 68.4135C61.2339 68.7495 61.2903 69.0851 61.4006 69.4203C61.5228 69.7435 61.6929 70.0363 61.9107 70.2988C62.1405 70.5612 62.412 70.7753 62.7252 70.9412C63.0382 71.095 63.3928 71.1705 63.7888 71.1678C64.2088 71.1649 64.5742 71.0783 64.885 70.9082C65.1958 70.738 65.4523 70.5202 65.6545 70.2548C65.8566 69.9894 66.0046 69.6884 66.0982 69.3517C66.2039 69.015 66.2556 68.6786 66.2532 68.3426ZM79.7734 66.5028L79.7824 67.7988L70.7027 71.9119L70.689 69.9319L76.754 67.1718L70.6513 64.496L70.6376 62.5161L79.7734 66.5028Z" fill="#2E2E2E"/>
<g filter="url(#filter3_d)">
<rect x="419.947" y="104.728" width="56.5391" height="10.2291" fill="white"/>
<circle cx="482.363" cy="86.0229" r="28.4138" fill="white"/>
<circle cx="454.262" cy="84.1765" r="28.1765" fill="white"/>
<circle cx="422.46" cy="98.4973" r="16.4596" fill="white"/>
<circle cx="476.212" cy="98.4973" r="16.4596" fill="white"/>
</g>
<defs>
<filter id="filter0_d" x="185.463" y="26.1035" width="57.7241" height="100.345" filterUnits="userSpaceOnUse" color-interpolation-filters="sRGB">
<feFlood flood-opacity="0" result="BackgroundImageFix"/>
<feColorMatrix in="SourceAlpha" type="matrix" values="0 0 0 0 0 0 0 0 0 0 0 0 0 0 0 0 0 0 127 0"/>
<feOffset dy="4"/>
<feGaussianBlur stdDeviation="2"/>
<feColorMatrix type="matrix" values="0 0 0 0 0 0 0 0 0 0 0 0 0 0 0 0 0 0 0.25 0"/>
<feBlend mode="normal" in2="BackgroundImageFix" result="effect1_dropShadow"/>
<feBlend mode="normal" in="SourceGraphic" in2="effect1_dropShadow" result="shape"/>
</filter>
<filter id="filter1_d" x="127.607" y="61.464" width="19.016" height="19.016" filterUnits="userSpaceOnUse" color-interpolation-filters="sRGB">
<feFlood flood-opacity="0" result="BackgroundImageFix"/>
<feColorMatrix in="SourceAlpha" type="matrix" values="0 0 0 0 0 0 0 0 0 0 0 0 0 0 0 0 0 0 127 0"/>
<feOffset dy="4"/>
<feGaussianBlur stdDeviation="2"/>
<feColorMatrix type="matrix" values="0 0 0 0 0 0 0 0 0 0 0 0 0 0 0 0 0 0 0.25 0"/>
<feBlend mode="normal" in2="BackgroundImageFix" result="effect1_dropShadow"/>
<feBlend mode="normal" in="SourceGraphic" in2="effect1_dropShadow" result="shape"/>
</filter>
<filter id="filter2_d" x="277.607" y="63.456" width="19.016" height="15.056" filterUnits="userSpaceOnUse" color-interpolation-filters="sRGB">
<feFlood flood-opacity="0" result="BackgroundImageFix"/>
<feColorMatrix in="SourceAlpha" type="matrix" values="0 0 0 0 0 0 0 0 0 0 0 0 0 0 0 0 0 0 127 0"/>
<feOffset dy="4"/>
<feGaussianBlur stdDeviation="2"/>
<feColorMatrix type="matrix" values="0 0 0 0 0 0 0 0 0 0 0 0 0 0 0 0 0 0 0.25 0"/>
<feBlend mode="normal" in2="BackgroundImageFix" result="effect1_dropShadow"/>
<feBlend mode="normal" in="SourceGraphic" in2="effect1_dropShadow" result="shape"/>
</filter>
<filter id="filter3_d" x="402" y="56" width="112.777" height="66.9569" filterUnits="userSpaceOnUse" color-interpolation-filters="sRGB">
<feFlood flood-opacity="0" result="BackgroundImageFix"/>
<feColorMatrix in="SourceAlpha" type="matrix" values="0 0 0 0 0 0 0 0 0 0 0 0 0 0 0 0 0 0 127 0"/>
<feOffset dy="4"/>
<feGaussianBlur stdDeviation="2"/>
<feColorMatrix type="matrix" values="0 0 0 0 0 0 0 0 0 0 0 0 0 0 0 0 0 0 0.25 0"/>
<feBlend mode="normal" in2="BackgroundImageFix" result="effect1_dropShadow"/>
<feBlend mode="normal" in="SourceGraphic" in2="effect1_dropShadow" result="shape"/>
</filter>
<linearGradient id="paint0_linear" x1="189.557" y1="93.3617" x2="217.728" y2="93.3617" gradientUnits="userSpaceOnUse">
<stop stop-color="#F8CB45"/>
<stop offset="1" stop-color="#CCA835"/>
</linearGradient>
<linearGradient id="paint1_linear" x1="225.01" y1="72.3357" x2="239.729" y2="47.4937" gradientUnits="userSpaceOnUse">
<stop stop-color="#59B8DA"/>
<stop offset="1" stop-color="#4999B6"/>
</linearGradient>
<linearGradient id="paint2_linear" x1="2368.85" y1="1269.07" x2="2673.36" y2="381.253" gradientUnits="userSpaceOnUse">
<stop stop-color="#59B8DA"/>
<stop offset="1" stop-color="#4999B6"/>
</linearGradient>
<linearGradient id="paint3_linear" x1="202.369" y1="80.6714" x2="218.143" y2="65.2995" gradientUnits="userSpaceOnUse">
<stop stop-color="#293770"/>
<stop offset="0.65" stop-color="#283775"/>
<stop offset="1" stop-color="#195094"/>
</linearGradient>
<linearGradient id="paint4_linear" x1="404.352" y1="20.0818" x2="352.351" y2="50.0146" gradientUnits="userSpaceOnUse">
<stop stop-color="#9DDCB2"/>
<stop offset="1" stop-color="#0ABBB0"/>
</linearGradient>
<linearGradient id="paint5_linear" x1="86.613" y1="64.8663" x2="30.6129" y2="109.49" gradientUnits="userSpaceOnUse">
<stop stop-color="#BEF4D1"/>
<stop offset="1" stop-color="#0ABBB0"/>
</linearGradient>
<clipPath id="clip0">
<rect width="49.7241" height="92.3448" fill="white" transform="translate(189.463 26.1035)"/>
</clipPath>
</defs>
</svg>
